<mxfile host="Electron" modified="2024-02-23T23:20:22.957Z" agent="Mozilla/5.0 (Macintosh; Intel Mac OS X 10_15_7) AppleWebKit/537.36 (KHTML, like Gecko) draw.io/23.1.5 Chrome/120.0.6099.109 Electron/28.1.0 Safari/537.36" etag="KzqiWJ9RaMYFIzGNXPe3" version="23.1.5" type="device">
  <diagram name="Page-1" id="lGg7TFK-4iDO3xBokP4W">
    <mxGraphModel dx="1151" dy="959" grid="1" gridSize="10" guides="1" tooltips="1" connect="1" arrows="1" fold="1" page="1" pageScale="1" pageWidth="827" pageHeight="1169" math="0" shadow="0">
      <root>
        <mxCell id="0" />
        <mxCell id="1" parent="0" />
        <mxCell id="K5dQghtmJ-VoOmfmf8Uz-15" style="rounded=0;orthogonalLoop=1;jettySize=auto;html=1;entryX=0;entryY=0.5;entryDx=0;entryDy=0;exitX=1;exitY=0.5;exitDx=0;exitDy=0;endArrow=openThin;endFill=0;" edge="1" parent="1" source="K5dQghtmJ-VoOmfmf8Uz-1" target="K5dQghtmJ-VoOmfmf8Uz-11">
          <mxGeometry relative="1" as="geometry" />
        </mxCell>
        <mxCell id="K5dQghtmJ-VoOmfmf8Uz-16" style="rounded=0;orthogonalLoop=1;jettySize=auto;html=1;entryX=0;entryY=0.5;entryDx=0;entryDy=0;exitX=1;exitY=0.5;exitDx=0;exitDy=0;endArrow=openThin;endFill=0;" edge="1" parent="1" source="K5dQghtmJ-VoOmfmf8Uz-1" target="K5dQghtmJ-VoOmfmf8Uz-10">
          <mxGeometry relative="1" as="geometry" />
        </mxCell>
        <mxCell id="K5dQghtmJ-VoOmfmf8Uz-1" value="" style="ellipse;whiteSpace=wrap;html=1;aspect=fixed;fillColor=#fff2cc;strokeColor=#d6b656;" vertex="1" parent="1">
          <mxGeometry x="160" y="250" width="40" height="40" as="geometry" />
        </mxCell>
        <mxCell id="K5dQghtmJ-VoOmfmf8Uz-2" value="" style="ellipse;whiteSpace=wrap;html=1;aspect=fixed;fillColor=#fff2cc;strokeColor=#d6b656;" vertex="1" parent="1">
          <mxGeometry x="160" y="310" width="40" height="40" as="geometry" />
        </mxCell>
        <mxCell id="K5dQghtmJ-VoOmfmf8Uz-4" value="X2" style="shape=flexArrow;endArrow=classic;html=1;rounded=0;entryX=0;entryY=0.5;entryDx=0;entryDy=0;endWidth=12.571428571428571;endSize=6.331428571428572;labelBackgroundColor=none;" edge="1" parent="1" target="K5dQghtmJ-VoOmfmf8Uz-2">
          <mxGeometry x="-0.3333" y="10" width="50" height="50" relative="1" as="geometry">
            <mxPoint x="100" y="330" as="sourcePoint" />
            <mxPoint x="160" y="419.5" as="targetPoint" />
            <mxPoint as="offset" />
          </mxGeometry>
        </mxCell>
        <mxCell id="K5dQghtmJ-VoOmfmf8Uz-7" value="X1" style="shape=flexArrow;endArrow=classic;html=1;rounded=0;entryX=0;entryY=0.5;entryDx=0;entryDy=0;endWidth=12.571428571428571;endSize=6.331428571428572;labelBackgroundColor=none;" edge="1" parent="1" target="K5dQghtmJ-VoOmfmf8Uz-1">
          <mxGeometry x="-0.3349" y="10" width="50" height="50" relative="1" as="geometry">
            <mxPoint x="100" y="270" as="sourcePoint" />
            <mxPoint x="160" y="259.71" as="targetPoint" />
            <mxPoint as="offset" />
          </mxGeometry>
        </mxCell>
        <mxCell id="K5dQghtmJ-VoOmfmf8Uz-10" value="" style="ellipse;whiteSpace=wrap;html=1;aspect=fixed;fillColor=#dae8fc;strokeColor=#6c8ebf;" vertex="1" parent="1">
          <mxGeometry x="280" y="220" width="40" height="40" as="geometry" />
        </mxCell>
        <mxCell id="K5dQghtmJ-VoOmfmf8Uz-11" value="" style="ellipse;whiteSpace=wrap;html=1;aspect=fixed;fillColor=#dae8fc;strokeColor=#6c8ebf;" vertex="1" parent="1">
          <mxGeometry x="280" y="160" width="40" height="40" as="geometry" />
        </mxCell>
        <mxCell id="K5dQghtmJ-VoOmfmf8Uz-12" value="" style="ellipse;whiteSpace=wrap;html=1;aspect=fixed;fillColor=#dae8fc;strokeColor=#6c8ebf;" vertex="1" parent="1">
          <mxGeometry x="280" y="280" width="40" height="40" as="geometry" />
        </mxCell>
        <mxCell id="K5dQghtmJ-VoOmfmf8Uz-13" value="" style="ellipse;whiteSpace=wrap;html=1;aspect=fixed;fillColor=#dae8fc;strokeColor=#6c8ebf;" vertex="1" parent="1">
          <mxGeometry x="280" y="340" width="40" height="40" as="geometry" />
        </mxCell>
        <mxCell id="K5dQghtmJ-VoOmfmf8Uz-14" value="" style="ellipse;whiteSpace=wrap;html=1;aspect=fixed;fillColor=#dae8fc;strokeColor=#6c8ebf;" vertex="1" parent="1">
          <mxGeometry x="280" y="400" width="40" height="40" as="geometry" />
        </mxCell>
        <mxCell id="K5dQghtmJ-VoOmfmf8Uz-17" style="rounded=0;orthogonalLoop=1;jettySize=auto;html=1;entryX=0;entryY=0.5;entryDx=0;entryDy=0;exitX=1;exitY=0.5;exitDx=0;exitDy=0;endArrow=openThin;endFill=0;" edge="1" parent="1" source="K5dQghtmJ-VoOmfmf8Uz-1" target="K5dQghtmJ-VoOmfmf8Uz-12">
          <mxGeometry relative="1" as="geometry">
            <mxPoint x="210" y="270" as="sourcePoint" />
            <mxPoint x="250" y="190" as="targetPoint" />
          </mxGeometry>
        </mxCell>
        <mxCell id="K5dQghtmJ-VoOmfmf8Uz-18" style="rounded=0;orthogonalLoop=1;jettySize=auto;html=1;entryX=0;entryY=0.5;entryDx=0;entryDy=0;exitX=1;exitY=0.5;exitDx=0;exitDy=0;endArrow=openThin;endFill=0;" edge="1" parent="1" source="K5dQghtmJ-VoOmfmf8Uz-1" target="K5dQghtmJ-VoOmfmf8Uz-13">
          <mxGeometry relative="1" as="geometry">
            <mxPoint x="210" y="270" as="sourcePoint" />
            <mxPoint x="250" y="310" as="targetPoint" />
          </mxGeometry>
        </mxCell>
        <mxCell id="K5dQghtmJ-VoOmfmf8Uz-19" style="rounded=0;orthogonalLoop=1;jettySize=auto;html=1;entryX=0;entryY=0.5;entryDx=0;entryDy=0;exitX=1;exitY=0.5;exitDx=0;exitDy=0;endArrow=openThin;endFill=0;" edge="1" parent="1" source="K5dQghtmJ-VoOmfmf8Uz-1" target="K5dQghtmJ-VoOmfmf8Uz-14">
          <mxGeometry relative="1" as="geometry">
            <mxPoint x="210" y="270" as="sourcePoint" />
            <mxPoint x="250" y="370" as="targetPoint" />
          </mxGeometry>
        </mxCell>
        <mxCell id="K5dQghtmJ-VoOmfmf8Uz-20" style="rounded=0;orthogonalLoop=1;jettySize=auto;html=1;entryX=0;entryY=0.5;entryDx=0;entryDy=0;exitX=1;exitY=0.5;exitDx=0;exitDy=0;endArrow=openThin;endFill=0;" edge="1" parent="1" source="K5dQghtmJ-VoOmfmf8Uz-2" target="K5dQghtmJ-VoOmfmf8Uz-14">
          <mxGeometry relative="1" as="geometry">
            <mxPoint x="220" y="280" as="sourcePoint" />
            <mxPoint x="260" y="380" as="targetPoint" />
          </mxGeometry>
        </mxCell>
        <mxCell id="K5dQghtmJ-VoOmfmf8Uz-21" style="rounded=0;orthogonalLoop=1;jettySize=auto;html=1;entryX=0;entryY=0.5;entryDx=0;entryDy=0;exitX=1;exitY=0.5;exitDx=0;exitDy=0;endArrow=openThin;endFill=0;" edge="1" parent="1" source="K5dQghtmJ-VoOmfmf8Uz-2" target="K5dQghtmJ-VoOmfmf8Uz-13">
          <mxGeometry relative="1" as="geometry">
            <mxPoint x="210" y="340" as="sourcePoint" />
            <mxPoint x="270" y="390" as="targetPoint" />
          </mxGeometry>
        </mxCell>
        <mxCell id="K5dQghtmJ-VoOmfmf8Uz-22" style="rounded=0;orthogonalLoop=1;jettySize=auto;html=1;entryX=0;entryY=0.5;entryDx=0;entryDy=0;exitX=1;exitY=0.5;exitDx=0;exitDy=0;endArrow=openThin;endFill=0;" edge="1" parent="1" source="K5dQghtmJ-VoOmfmf8Uz-2" target="K5dQghtmJ-VoOmfmf8Uz-12">
          <mxGeometry relative="1" as="geometry">
            <mxPoint x="240" y="300" as="sourcePoint" />
            <mxPoint x="280" y="400" as="targetPoint" />
          </mxGeometry>
        </mxCell>
        <mxCell id="K5dQghtmJ-VoOmfmf8Uz-23" style="rounded=0;orthogonalLoop=1;jettySize=auto;html=1;entryX=0;entryY=0.5;entryDx=0;entryDy=0;exitX=1;exitY=0.5;exitDx=0;exitDy=0;endArrow=openThin;endFill=0;" edge="1" parent="1" source="K5dQghtmJ-VoOmfmf8Uz-2" target="K5dQghtmJ-VoOmfmf8Uz-10">
          <mxGeometry relative="1" as="geometry">
            <mxPoint x="250" y="310" as="sourcePoint" />
            <mxPoint x="290" y="410" as="targetPoint" />
          </mxGeometry>
        </mxCell>
        <mxCell id="K5dQghtmJ-VoOmfmf8Uz-24" style="rounded=0;orthogonalLoop=1;jettySize=auto;html=1;entryX=0;entryY=0.5;entryDx=0;entryDy=0;exitX=1;exitY=0.5;exitDx=0;exitDy=0;endArrow=openThin;endFill=0;" edge="1" parent="1" source="K5dQghtmJ-VoOmfmf8Uz-2" target="K5dQghtmJ-VoOmfmf8Uz-11">
          <mxGeometry relative="1" as="geometry">
            <mxPoint x="260" y="320" as="sourcePoint" />
            <mxPoint x="300" y="420" as="targetPoint" />
          </mxGeometry>
        </mxCell>
        <mxCell id="K5dQghtmJ-VoOmfmf8Uz-25" value="y=0" style="ellipse;whiteSpace=wrap;html=1;aspect=fixed;fillColor=#f8cecc;strokeColor=#b85450;" vertex="1" parent="1">
          <mxGeometry x="400" y="220" width="40" height="40" as="geometry" />
        </mxCell>
        <mxCell id="K5dQghtmJ-VoOmfmf8Uz-26" value="y=2" style="ellipse;whiteSpace=wrap;html=1;aspect=fixed;fillColor=#f8cecc;strokeColor=#b85450;" vertex="1" parent="1">
          <mxGeometry x="400" y="340" width="40" height="40" as="geometry" />
        </mxCell>
        <mxCell id="K5dQghtmJ-VoOmfmf8Uz-27" style="rounded=0;orthogonalLoop=1;jettySize=auto;html=1;entryX=0;entryY=0.5;entryDx=0;entryDy=0;exitX=1;exitY=0.5;exitDx=0;exitDy=0;endArrow=openThin;endFill=0;" edge="1" parent="1" source="K5dQghtmJ-VoOmfmf8Uz-11" target="K5dQghtmJ-VoOmfmf8Uz-25">
          <mxGeometry relative="1" as="geometry">
            <mxPoint x="210" y="350" as="sourcePoint" />
            <mxPoint x="290" y="190" as="targetPoint" />
          </mxGeometry>
        </mxCell>
        <mxCell id="K5dQghtmJ-VoOmfmf8Uz-28" style="rounded=0;orthogonalLoop=1;jettySize=auto;html=1;entryX=0;entryY=0.5;entryDx=0;entryDy=0;exitX=1;exitY=0.5;exitDx=0;exitDy=0;endArrow=openThin;endFill=0;" edge="1" parent="1" source="K5dQghtmJ-VoOmfmf8Uz-11" target="K5dQghtmJ-VoOmfmf8Uz-26">
          <mxGeometry relative="1" as="geometry">
            <mxPoint x="330" y="190" as="sourcePoint" />
            <mxPoint x="410" y="270" as="targetPoint" />
          </mxGeometry>
        </mxCell>
        <mxCell id="K5dQghtmJ-VoOmfmf8Uz-29" style="rounded=0;orthogonalLoop=1;jettySize=auto;html=1;entryX=0;entryY=0.5;entryDx=0;entryDy=0;exitX=1;exitY=0.5;exitDx=0;exitDy=0;endArrow=openThin;endFill=0;" edge="1" parent="1" source="K5dQghtmJ-VoOmfmf8Uz-10" target="K5dQghtmJ-VoOmfmf8Uz-25">
          <mxGeometry relative="1" as="geometry">
            <mxPoint x="340" y="200" as="sourcePoint" />
            <mxPoint x="420" y="280" as="targetPoint" />
          </mxGeometry>
        </mxCell>
        <mxCell id="K5dQghtmJ-VoOmfmf8Uz-30" style="rounded=0;orthogonalLoop=1;jettySize=auto;html=1;entryX=0;entryY=0.5;entryDx=0;entryDy=0;exitX=1;exitY=0.5;exitDx=0;exitDy=0;endArrow=openThin;endFill=0;" edge="1" parent="1" source="K5dQghtmJ-VoOmfmf8Uz-10" target="K5dQghtmJ-VoOmfmf8Uz-26">
          <mxGeometry relative="1" as="geometry">
            <mxPoint x="330" y="250" as="sourcePoint" />
            <mxPoint x="410" y="270" as="targetPoint" />
          </mxGeometry>
        </mxCell>
        <mxCell id="K5dQghtmJ-VoOmfmf8Uz-31" style="rounded=0;orthogonalLoop=1;jettySize=auto;html=1;entryX=0;entryY=0.5;entryDx=0;entryDy=0;exitX=1;exitY=0.5;exitDx=0;exitDy=0;endArrow=openThin;endFill=0;" edge="1" parent="1" source="K5dQghtmJ-VoOmfmf8Uz-12" target="K5dQghtmJ-VoOmfmf8Uz-25">
          <mxGeometry relative="1" as="geometry">
            <mxPoint x="340" y="260" as="sourcePoint" />
            <mxPoint x="420" y="280" as="targetPoint" />
          </mxGeometry>
        </mxCell>
        <mxCell id="K5dQghtmJ-VoOmfmf8Uz-32" style="rounded=0;orthogonalLoop=1;jettySize=auto;html=1;entryX=0;entryY=0.5;entryDx=0;entryDy=0;exitX=1;exitY=0.5;exitDx=0;exitDy=0;endArrow=openThin;endFill=0;" edge="1" parent="1" source="K5dQghtmJ-VoOmfmf8Uz-12" target="K5dQghtmJ-VoOmfmf8Uz-26">
          <mxGeometry relative="1" as="geometry">
            <mxPoint x="350" y="270" as="sourcePoint" />
            <mxPoint x="430" y="290" as="targetPoint" />
          </mxGeometry>
        </mxCell>
        <mxCell id="K5dQghtmJ-VoOmfmf8Uz-33" style="rounded=0;orthogonalLoop=1;jettySize=auto;html=1;entryX=0;entryY=0.5;entryDx=0;entryDy=0;exitX=1;exitY=0.5;exitDx=0;exitDy=0;endArrow=openThin;endFill=0;" edge="1" parent="1" source="K5dQghtmJ-VoOmfmf8Uz-13" target="K5dQghtmJ-VoOmfmf8Uz-25">
          <mxGeometry relative="1" as="geometry">
            <mxPoint x="360" y="280" as="sourcePoint" />
            <mxPoint x="440" y="300" as="targetPoint" />
          </mxGeometry>
        </mxCell>
        <mxCell id="K5dQghtmJ-VoOmfmf8Uz-34" style="rounded=0;orthogonalLoop=1;jettySize=auto;html=1;entryX=0;entryY=0.5;entryDx=0;entryDy=0;exitX=1;exitY=0.5;exitDx=0;exitDy=0;endArrow=openThin;endFill=0;" edge="1" parent="1" source="K5dQghtmJ-VoOmfmf8Uz-13" target="K5dQghtmJ-VoOmfmf8Uz-26">
          <mxGeometry relative="1" as="geometry">
            <mxPoint x="370" y="290" as="sourcePoint" />
            <mxPoint x="450" y="310" as="targetPoint" />
          </mxGeometry>
        </mxCell>
        <mxCell id="K5dQghtmJ-VoOmfmf8Uz-35" style="rounded=0;orthogonalLoop=1;jettySize=auto;html=1;entryX=0;entryY=0.5;entryDx=0;entryDy=0;exitX=1;exitY=0.5;exitDx=0;exitDy=0;endArrow=openThin;endFill=0;" edge="1" parent="1" source="K5dQghtmJ-VoOmfmf8Uz-14" target="K5dQghtmJ-VoOmfmf8Uz-25">
          <mxGeometry relative="1" as="geometry">
            <mxPoint x="380" y="300" as="sourcePoint" />
            <mxPoint x="460" y="320" as="targetPoint" />
          </mxGeometry>
        </mxCell>
        <mxCell id="K5dQghtmJ-VoOmfmf8Uz-36" style="rounded=0;orthogonalLoop=1;jettySize=auto;html=1;entryX=0;entryY=0.5;entryDx=0;entryDy=0;exitX=1;exitY=0.5;exitDx=0;exitDy=0;endArrow=openThin;endFill=0;" edge="1" parent="1" source="K5dQghtmJ-VoOmfmf8Uz-14" target="K5dQghtmJ-VoOmfmf8Uz-26">
          <mxGeometry relative="1" as="geometry">
            <mxPoint x="390" y="310" as="sourcePoint" />
            <mxPoint x="470" y="330" as="targetPoint" />
          </mxGeometry>
        </mxCell>
        <mxCell id="K5dQghtmJ-VoOmfmf8Uz-37" value="y=1" style="ellipse;whiteSpace=wrap;html=1;aspect=fixed;fillColor=#f8cecc;strokeColor=#b85450;" vertex="1" parent="1">
          <mxGeometry x="400" y="280" width="40" height="40" as="geometry" />
        </mxCell>
        <mxCell id="K5dQghtmJ-VoOmfmf8Uz-38" style="rounded=0;orthogonalLoop=1;jettySize=auto;html=1;entryX=0;entryY=0.5;entryDx=0;entryDy=0;exitX=1;exitY=0.5;exitDx=0;exitDy=0;endArrow=openThin;endFill=0;" edge="1" parent="1" source="K5dQghtmJ-VoOmfmf8Uz-11" target="K5dQghtmJ-VoOmfmf8Uz-37">
          <mxGeometry relative="1" as="geometry">
            <mxPoint x="330" y="190" as="sourcePoint" />
            <mxPoint x="410" y="250" as="targetPoint" />
          </mxGeometry>
        </mxCell>
        <mxCell id="K5dQghtmJ-VoOmfmf8Uz-39" style="rounded=0;orthogonalLoop=1;jettySize=auto;html=1;entryX=0;entryY=0.5;entryDx=0;entryDy=0;exitX=1;exitY=0.5;exitDx=0;exitDy=0;endArrow=openThin;endFill=0;" edge="1" parent="1" source="K5dQghtmJ-VoOmfmf8Uz-10" target="K5dQghtmJ-VoOmfmf8Uz-37">
          <mxGeometry relative="1" as="geometry">
            <mxPoint x="340" y="200" as="sourcePoint" />
            <mxPoint x="420" y="260" as="targetPoint" />
          </mxGeometry>
        </mxCell>
        <mxCell id="K5dQghtmJ-VoOmfmf8Uz-40" style="rounded=0;orthogonalLoop=1;jettySize=auto;html=1;entryX=0;entryY=0.5;entryDx=0;entryDy=0;exitX=1;exitY=0.5;exitDx=0;exitDy=0;endArrow=openThin;endFill=0;" edge="1" parent="1" source="K5dQghtmJ-VoOmfmf8Uz-12" target="K5dQghtmJ-VoOmfmf8Uz-37">
          <mxGeometry relative="1" as="geometry">
            <mxPoint x="350" y="210" as="sourcePoint" />
            <mxPoint x="430" y="270" as="targetPoint" />
          </mxGeometry>
        </mxCell>
        <mxCell id="K5dQghtmJ-VoOmfmf8Uz-41" style="rounded=0;orthogonalLoop=1;jettySize=auto;html=1;entryX=0;entryY=0.5;entryDx=0;entryDy=0;exitX=1;exitY=0.5;exitDx=0;exitDy=0;endArrow=openThin;endFill=0;" edge="1" parent="1" source="K5dQghtmJ-VoOmfmf8Uz-13" target="K5dQghtmJ-VoOmfmf8Uz-26">
          <mxGeometry relative="1" as="geometry">
            <mxPoint x="360" y="220" as="sourcePoint" />
            <mxPoint x="440" y="280" as="targetPoint" />
          </mxGeometry>
        </mxCell>
        <mxCell id="K5dQghtmJ-VoOmfmf8Uz-42" style="rounded=0;orthogonalLoop=1;jettySize=auto;html=1;entryX=0;entryY=0.5;entryDx=0;entryDy=0;exitX=1;exitY=0.5;exitDx=0;exitDy=0;endArrow=openThin;endFill=0;" edge="1" parent="1" source="K5dQghtmJ-VoOmfmf8Uz-14" target="K5dQghtmJ-VoOmfmf8Uz-37">
          <mxGeometry relative="1" as="geometry">
            <mxPoint x="370" y="230" as="sourcePoint" />
            <mxPoint x="450" y="290" as="targetPoint" />
          </mxGeometry>
        </mxCell>
        <mxCell id="K5dQghtmJ-VoOmfmf8Uz-46" value="Input&lt;br&gt;Layer" style="text;html=1;align=center;verticalAlign=middle;resizable=0;points=[];autosize=1;strokeColor=none;fillColor=none;" vertex="1" parent="1">
          <mxGeometry x="155" y="113" width="50" height="40" as="geometry" />
        </mxCell>
        <mxCell id="K5dQghtmJ-VoOmfmf8Uz-47" value="Hidden&lt;br&gt;Layer" style="text;html=1;align=center;verticalAlign=middle;resizable=0;points=[];autosize=1;strokeColor=none;fillColor=none;" vertex="1" parent="1">
          <mxGeometry x="270" y="113" width="60" height="40" as="geometry" />
        </mxCell>
        <mxCell id="K5dQghtmJ-VoOmfmf8Uz-48" value="Output&lt;br&gt;Layer" style="text;html=1;align=center;verticalAlign=middle;resizable=0;points=[];autosize=1;strokeColor=none;fillColor=none;" vertex="1" parent="1">
          <mxGeometry x="390" y="113" width="60" height="40" as="geometry" />
        </mxCell>
      </root>
    </mxGraphModel>
  </diagram>
</mxfile>
